# This file uses centimeters as units for non-parametric coordinates.

mtllib PaperStraw.mtl
g default
v 0.382732 6.785815 6.883448
v 0.000000 6.403083 6.883448
v -0.382732 6.785815 6.883448
v 0.000000 7.168546 6.883448
v 0.291399 6.785815 3.700418
v 0.000000 6.494416 3.700418
v -0.291399 6.785815 3.700418
v 0.000000 7.077213 3.700418
v 0.535463 6.785815 6.879066
v 0.000000 6.250352 6.879066
v -0.535463 6.785815 6.879066
v 0.000000 7.321278 6.879066
v 0.172891 6.785815 7.673757
v 0.000000 6.612924 7.673757
v -0.172891 6.785815 7.673757
v -0.000000 6.958705 7.673757
vt 0.348578 0.315675
vt 0.404279 0.306649
vt 0.466995 0.306538
vt 0.532031 0.300988
vt 0.594967 0.300920
vt 0.362283 0.689905
vt 0.406250 0.687500
vt 0.467759 0.687498
vt 0.529804 0.687498
vt 0.590229 0.687492
vt 0.349816 0.309807
vt 0.406250 0.296200
vt 0.468759 0.296249
vt 0.590492 0.302053
vt 0.381437 0.294859
vt 0.379104 0.312500
vt 0.421417 0.296200
vt 0.415297 0.327912
vt 0.483913 0.296184
vt 0.478640 0.327941
vt 0.566694 0.280786
vt 0.577753 0.312530
vn 0.706961 -0.706961 -0.020285
vn 0.706961 -0.706961 -0.020285
vn 0.706961 -0.706961 -0.020285
vn 0.706961 -0.706961 -0.020285
vn -0.706961 -0.706961 -0.020285
vn -0.706961 -0.706961 -0.020285
vn -0.706961 -0.706961 -0.020285
vn -0.706961 -0.706961 -0.020285
vn -0.706961 0.706961 -0.020285
vn -0.706961 0.706961 -0.020285
vn -0.706961 0.706961 -0.020285
vn -0.706961 0.706961 -0.020285
vn 0.706961 0.706962 -0.020285
vn 0.706961 0.706962 -0.020285
vn 0.706961 0.706961 -0.020285
vn 0.706961 0.706962 -0.020285
vn 0.672953 -0.672953 0.307030
vn 0.672953 -0.672953 0.307030
vn 0.672953 -0.672953 0.307030
vn 0.672953 -0.672953 0.307030
vn -0.672953 -0.672953 0.307030
vn -0.672954 -0.672953 0.307030
vn -0.672954 -0.672953 0.307030
vn -0.672954 -0.672953 0.307030
vn -0.672953 0.672953 0.307030
vn -0.672953 0.672953 0.307030
vn -0.672953 0.672953 0.307030
vn -0.672953 0.672953 0.307030
vn 0.672953 0.672953 0.307030
vn 0.672953 0.672953 0.307030
vn 0.672953 0.672953 0.307030
vn 0.672953 0.672953 0.307030
s off
g pCylinder3
usemtl initialShadingGroup
f 1/1/1 2/2/2 6/7/3 5/6/4
f 2/2/5 3/3/6 7/8/7 6/7/8
f 3/3/9 4/4/10 8/9/11 7/8/12
f 4/4/13 1/5/14 5/10/15 8/9/16
f 10/16/17 9/15/18 13/11/19 14/1/20
f 11/18/21 10/17/22 14/12/23 15/2/24
f 12/20/25 11/19/26 15/13/27 16/3/28
f 9/22/29 12/21/30 16/14/31 13/5/32
