# This file uses centimeters as units for non-parametric coordinates.

mtllib Ch_Maskobj.mtl
g default
v -2.154627 6.341724 1.650886
v -1.349045 6.212707 2.513762
v 0.000000 6.159266 2.871179
v 1.349045 6.212707 2.513762
v 2.154627 6.341724 1.650886
v -2.524918 8.007618 1.797740
v -1.610880 7.798864 3.193905
v 0.000000 7.712396 3.772216
v 1.610880 7.798864 3.193905
v 2.524919 8.007618 1.797740
v -2.524918 8.718735 2.006296
v -1.610880 8.509977 3.402462
v 0.000000 8.423509 3.980772
v 1.610880 8.509977 3.402462
v 2.524919 8.718735 2.006296
v -2.154627 9.700903 2.153150
v -1.349045 9.571886 3.016028
v 0.000000 9.518441 3.373444
v 1.349045 9.571886 3.016028
v 2.154627 9.700903 2.153150
v -2.487767 9.696795 1.216798
v -1.680362 9.939874 1.728016
v 0.000000 9.628107 2.465440
v 1.680362 9.939874 1.728016
v 2.487767 9.696795 1.216798
v -2.287092 6.341724 0.655829
v -2.864353 8.063491 0.849908
v 2.287092 6.341724 0.655829
v 2.864353 8.063491 0.849908
v -2.864353 8.837844 0.960015
v 2.864353 8.837844 0.960015
v -1.569458 6.011411 1.189714
v -1.283272 5.863959 1.893096
v 0.000000 5.844973 2.131573
v 1.283272 5.863959 1.893096
v 1.569458 6.011411 1.189714
v -1.690043 6.181990 0.622094
v 1.690043 6.181990 0.622094
v -2.230788 8.070015 1.663855
v -1.420464 7.920742 2.972850
v -0.000000 7.861571 3.494856
v 1.420464 7.920742 2.972850
v 2.230789 8.070015 1.663855
v -2.238570 8.682631 1.862778
v -1.434757 8.386906 3.168013
v 0.000000 8.279781 3.695891
v 1.434757 8.386906 3.168013
v 2.238570 8.682631 1.862778
v -0.789073 6.880355 2.843856
v -1.186361 7.152635 2.848780
v -1.598302 7.208677 2.605549
v -1.832146 7.022258 2.227974
v -1.778473 6.680607 1.892725
v -1.462399 6.343585 1.756671
v -1.031817 6.168889 1.883471
v -0.688202 6.238260 2.213795
v -0.592335 6.519241 2.593081
v 1.945381 7.006496 2.210639
v 1.644343 7.215062 2.523488
v 1.212639 7.142628 2.724443
v 0.852268 6.823087 2.719476
v 0.731853 6.405955 2.510910
v 0.907736 6.086414 2.196337
v 1.297620 6.013980 1.922947
v 1.719074 6.222546 1.818665
v 1.974895 6.614521 1.932283
v 2.250284 6.654425 2.738746
v 2.279798 6.262450 2.460390
v 2.023977 5.870475 2.346771
v 1.602523 5.661909 2.451054
v 1.212639 5.734343 2.724443
v 1.036755 6.053885 3.039017
v 1.157171 6.471015 3.247582
v 1.517541 6.790556 3.252550
v 1.949245 6.862990 3.051595
v -1.103087 6.414496 3.268340
v -0.906348 6.053381 3.017565
v -1.002215 5.772401 2.638279
v -1.345830 5.703029 2.307955
v -1.776412 5.877726 2.181155
v -2.092487 6.214747 2.317209
v -2.146160 6.556399 2.652458
v -1.912316 6.742817 3.030033
v -1.500375 6.686775 3.273264
vt 0.262047 0.243207
vt 0.215653 0.356909
vt 0.505295 0.194899
vt 0.505295 0.000016
vt 0.192471 0.500014
vt 0.505295 0.375951
vt 0.215605 0.643128
vt 0.505295 0.557922
vt 0.261962 0.756845
vt 0.505295 0.750993
vt 0.384338 0.000016
vt 0.384338 0.197315
vt 0.794735 0.402902
vt 0.915335 0.356450
vt 0.384338 0.375543
vt 0.716910 0.000002
vt 0.384338 0.553070
vt 0.743819 0.149595
vt 0.384338 0.750993
vt 0.507876 0.337335
vt 0.890064 0.286862
vt 0.997375 0.285963
vt 0.626838 0.042363
vt 0.627785 0.244933
vt 0.507876 0.455494
vt 0.179358 0.043602
vt 0.338811 0.169408
vt 0.338701 0.830669
vt 0.179207 0.956422
vt 0.964296 0.570556
vt 0.105723 1.000000
vt 0.341794 0.277425
vt 0.292123 0.351146
vt 0.281541 0.500029
vt 0.292074 0.648916
vt 0.341721 0.722653
vt 0.382152 0.223728
vt 0.382060 0.776364
vt 0.473552 0.194899
vt 0.473552 0.025440
vt 0.473552 0.375951
vt 0.473552 0.557922
vt 0.473552 0.725515
vt 0.415852 0.025440
vt 0.415852 0.197315
vt 0.415852 0.375543
vt 0.415852 0.553070
vt 0.415852 0.725515
vt 0.840702 0.647200
vt 0.788282 0.647205
vt 0.735863 0.647209
vt 0.683443 0.647214
vt 0.631024 0.647219
vt 0.578604 0.647224
vt 0.526185 0.647229
vt 0.945541 0.647190
vt 0.893121 0.647195
vt 0.822393 0.723878
vt 0.769974 0.723875
vt 0.717554 0.723872
vt 0.665134 0.723869
vt 0.612715 0.723866
vt 0.560295 0.723863
vt 0.507876 0.723860
vt 0.927232 0.723884
vt 0.874813 0.723881
vt 0.979652 0.723887
vt 0.997961 0.647185
vt 0.113994 0.865552
vt 0.623176 0.337335
vt 0.114115 0.134451
vt 0.040129 0.102233
vt 0.623176 0.175479
vt 0.507876 0.570556
vt 0.683778 0.570556
vt 0.030925 0.693372
vt 0.000000 0.499982
vt 0.030990 0.306603
vt 0.697375 0.270198
vt 0.626894 0.352243
vt 0.845926 0.455494
vt 0.964296 0.455494
vt 0.507876 0.175479
vt 0.507876 0.000016
vt 0.683778 0.455494
vt 0.039997 0.897746
vt 0.623176 0.455494
vt 0.845926 0.570556
vt 0.105888 0.000000
vt 0.623176 0.000016
vt 0.507876 0.455494
vt 0.645139 0.376003
vt 0.687495 0.285928
vt 0.822397 0.647245
vt 0.981773 0.223560
vt 0.999713 0.174290
vt 0.507880 0.647228
vt 0.981731 0.125041
vt 0.936332 0.098851
vt 0.884714 0.107927
vt 0.851035 0.148121
vt 0.851035 0.200501
vt 0.884756 0.240675
vt 0.840695 0.570568
vt 0.867369 0.124750
vt 0.885325 0.075492
vt 0.526178 0.570596
vt 0.867422 0.026233
vt 0.821977 0.000015
vt 0.770388 0.009125
vt 0.736702 0.049327
vt 0.736649 0.101710
vt 0.770388 0.141859
vt 0.788275 0.570572
vt 0.821977 0.150969
vt 0.735856 0.570577
vt 0.683436 0.570582
vt 0.631017 0.570587
vt 0.578597 0.570592
vt 0.997954 0.570553
vt 0.945534 0.570558
vt 0.893114 0.570563
vt 0.769978 0.647242
vt 0.936375 0.249750
vt 0.717558 0.647239
vt 0.665139 0.647236
vt 0.612719 0.647233
vt 0.560300 0.647231
vt 0.979656 0.647254
vt 0.927237 0.647251
vt 0.874817 0.647248
vn -0.781541 -0.292097 0.551247
vn -0.781541 -0.292097 0.551247
vn -0.781541 -0.292097 0.551247
vn -0.781541 -0.292097 0.551247
vn -0.288475 -0.449797 0.845260
vn -0.288475 -0.449797 0.845260
vn -0.288475 -0.449797 0.845260
vn -0.288475 -0.449797 0.845260
vn 0.288475 -0.449797 0.845260
vn 0.288475 -0.449797 0.845260
vn 0.288475 -0.449797 0.845260
vn 0.288475 -0.449797 0.845260
vn 0.781541 -0.292097 0.551248
vn 0.781541 -0.292097 0.551248
vn 0.781541 -0.292097 0.551247
vn 0.781541 -0.292097 0.551248
vn -0.737221 0.298999 0.605891
vn -0.737221 0.298999 0.605891
vn -0.737221 0.298999 0.605891
vn -0.737221 0.298999 0.605891
vn -0.253594 0.430013 0.866475
vn -0.253594 0.430013 0.866475
vn -0.253594 0.430013 0.866475
vn -0.253594 0.430013 0.866475
vn 0.253594 0.430013 0.866475
vn 0.253594 0.430013 0.866475
vn 0.253594 0.430013 0.866475
vn 0.253594 0.430013 0.866475
vn 0.737221 0.298999 0.605892
vn 0.737221 0.298999 0.605892
vn 0.737221 0.298999 0.605892
vn 0.737221 0.298999 0.605892
vn -0.263821 0.936263 0.231970
vn -0.263821 0.936263 0.231970
vn -0.263821 0.936263 0.231970
vn -0.263821 0.936263 0.231970
vn 0.043371 0.977572 0.206088
vn 0.043371 0.977572 0.206088
vn 0.043371 0.977572 0.206088
vn 0.043371 0.977572 0.206088
vn -0.043371 0.977572 0.206087
vn -0.043371 0.977572 0.206087
vn -0.043371 0.977572 0.206087
vn -0.043371 0.977572 0.206087
vn 0.263822 0.936263 0.231970
vn 0.263822 0.936263 0.231970
vn 0.263822 0.936263 0.231970
vn 0.263822 0.936263 0.231970
vn -0.933802 -0.283197 0.218663
vn -0.933802 -0.283197 0.218663
vn -0.933802 -0.283197 0.218663
vn -0.933802 -0.283197 0.218663
vn 0.933802 -0.283197 0.218663
vn 0.933802 -0.283197 0.218663
vn 0.933802 -0.283197 0.218663
vn 0.933802 -0.283197 0.218663
vn -0.946267 -0.067830 0.316192
vn -0.946267 -0.067829 0.316192
vn -0.946267 -0.067830 0.316192
vn -0.946267 -0.067830 0.316192
vn 0.946267 -0.067829 0.316192
vn 0.946267 -0.067829 0.316192
vn 0.946267 -0.067829 0.316192
vn 0.946267 -0.067829 0.316192
vn -0.899723 0.294329 0.322287
vn -0.899723 0.294329 0.322287
vn -0.899723 0.294329 0.322287
vn -0.899723 0.294329 0.322287
vn 0.899723 0.294330 0.322287
vn 0.899723 0.294330 0.322287
vn 0.899723 0.294330 0.322287
vn 0.899723 0.294330 0.322287
vn -0.514494 -0.830882 0.211967
vn -0.514494 -0.830882 0.211967
vn -0.514494 -0.830882 0.211967
vn -0.514494 -0.830882 0.211967
vn -0.121978 -0.894499 0.430109
vn -0.121978 -0.894499 0.430109
vn -0.121978 -0.894499 0.430109
vn -0.121978 -0.894499 0.430109
vn 0.121978 -0.894499 0.430109
vn 0.121978 -0.894499 0.430109
vn 0.121978 -0.894499 0.430109
vn 0.121978 -0.894499 0.430109
vn 0.514494 -0.830882 0.211968
vn 0.514494 -0.830882 0.211968
vn 0.514494 -0.830882 0.211968
vn 0.514494 -0.830882 0.211968
vn -0.395541 -0.917738 -0.036127
vn -0.395541 -0.917738 -0.036127
vn -0.395541 -0.917738 -0.036127
vn -0.395541 -0.917738 -0.036127
vn 0.395541 -0.917738 -0.036127
vn 0.395541 -0.917738 -0.036127
vn 0.395541 -0.917738 -0.036127
vn 0.395541 -0.917738 -0.036127
vn -0.183957 0.952346 0.243303
vn -0.152153 0.927696 0.340926
vn -0.152059 0.927609 0.341202
vn -0.183957 0.952346 0.243303
vn 0.000000 0.896667 0.442705
vn 0.000000 0.896667 0.442705
vn 0.152153 0.927696 0.340925
vn 0.152059 0.927610 0.341202
vn 0.183957 0.952347 0.243302
vn 0.183957 0.952347 0.243302
vn -0.261249 -0.942655 0.207727
vn -0.310665 -0.950307 0.020087
vn -0.310665 -0.950307 0.020087
vn -0.260069 -0.942096 0.211706
vn -0.000000 -0.915919 0.401362
vn -0.000000 -0.915919 0.401362
vn 0.261249 -0.942655 0.207727
vn 0.260069 -0.942096 0.211706
vn 0.310665 -0.950307 0.020086
vn 0.310665 -0.950307 0.020086
vn 0.425599 -0.263941 0.865564
vn 0.425599 -0.263941 0.865564
vn 0.425599 -0.263941 0.865564
vn 0.425599 -0.263941 0.865564
vn -0.425598 -0.263941 0.865564
vn -0.425598 -0.263941 0.865564
vn -0.425598 -0.263941 0.865564
vn -0.425598 -0.263941 0.865564
vn 0.347543 0.492679 0.797798
vn 0.347543 0.492679 0.797798
vn 0.347543 0.492679 0.797798
vn 0.347543 0.492679 0.797798
vn -0.263954 0.740776 0.617721
vn -0.263954 0.740776 0.617721
vn -0.263954 0.740776 0.617721
vn -0.263954 0.740776 0.617721
vn -0.751946 0.642257 0.148604
vn -0.751947 0.642257 0.148604
vn -0.751946 0.642257 0.148604
vn -0.751947 0.642257 0.148604
vn -0.888093 0.243218 -0.390045
vn -0.888093 0.243218 -0.390045
vn -0.888094 0.243218 -0.390045
vn -0.888093 0.243218 -0.390045
vn -0.608692 -0.269625 -0.746188
vn -0.608692 -0.269625 -0.746188
vn -0.608692 -0.269625 -0.746188
vn -0.608692 -0.269625 -0.746188
vn -0.044477 -0.656308 -0.753181
vn -0.044477 -0.656308 -0.753181
vn -0.044477 -0.656308 -0.753181
vn -0.044477 -0.656308 -0.753181
vn 0.540549 -0.735897 -0.407753
vn 0.540549 -0.735897 -0.407753
vn 0.540549 -0.735897 -0.407753
vn 0.540549 -0.735897 -0.407753
vn 0.872647 -0.471151 0.128469
vn 0.872647 -0.471151 0.128469
vn 0.872647 -0.471151 0.128469
vn 0.872647 -0.471151 0.128469
vn 0.796423 0.014051 0.604577
vn 0.796423 0.014051 0.604577
vn 0.796423 0.014051 0.604577
vn 0.796423 0.014051 0.604577
vn 0.649519 0.750000 0.125000
vn 0.649519 0.750000 0.125000
vn 0.649519 0.750000 0.125000
vn 0.649519 0.750000 0.125000
vn 0.095818 0.852869 0.513258
vn 0.095818 0.852869 0.513258
vn 0.095818 0.852869 0.513258
vn 0.095818 0.852868 0.513258
vn -0.502717 0.556671 0.661358
vn -0.502717 0.556671 0.661358
vn -0.502717 0.556671 0.661358
vn -0.502717 0.556671 0.661358
vn -0.866025 0.000000 0.500000
vn -0.866025 0.000000 0.500000
vn -0.866025 0.000000 0.500000
vn -0.866025 0.000000 0.500000
vn -0.824111 -0.556671 0.104687
vn -0.824111 -0.556671 0.104687
vn -0.824111 -0.556671 0.104687
vn -0.824111 -0.556671 0.104687
vn -0.396586 -0.852868 -0.339610
vn -0.396586 -0.852868 -0.339610
vn -0.396586 -0.852868 -0.339610
vn -0.396586 -0.852868 -0.339610
vn 0.216506 -0.750000 -0.625000
vn 0.216506 -0.750000 -0.625000
vn 0.216506 -0.750000 -0.625000
vn 0.216506 -0.750000 -0.625000
vn 0.728293 -0.296198 -0.617945
vn 0.728293 -0.296198 -0.617945
vn 0.728293 -0.296198 -0.617945
vn 0.728293 -0.296198 -0.617945
vn 0.899303 0.296198 -0.321748
vn 0.899303 0.296198 -0.321748
vn 0.899303 0.296198 -0.321748
vn 0.899303 0.296198 -0.321748
vn -0.445952 -0.661599 0.602838
vn -0.445952 -0.661599 0.602838
vn -0.445952 -0.661599 0.602838
vn -0.445952 -0.661599 0.602838
vn -0.445952 -0.661599 0.602838
vn -0.445952 -0.661599 0.602838
vn -0.445952 -0.661599 0.602838
vn -0.445952 -0.661599 0.602838
vn -0.445952 -0.661598 0.602838
vn 0.433012 -0.500000 0.750000
vn 0.433012 -0.500000 0.750000
vn 0.433012 -0.500000 0.750000
vn 0.433012 -0.500000 0.750000
vn 0.433012 -0.500000 0.750000
vn 0.433013 -0.500000 0.750000
vn 0.433012 -0.500000 0.750000
vn 0.433012 -0.500000 0.750000
vn 0.433012 -0.500000 0.750000
s off
g pSphere2
usemtl initialShadingGroup
f 1/1/1 2/2/2 7/78/3 6/71/4
f 2/2/5 3/5/6 8/77/7 7/78/8
f 3/5/9 4/7/10 9/76/11 8/77/12
f 4/7/13 5/9/14 10/69/15 9/76/16
f 11/88/17 12/75/18 17/85/19 16/81/20
f 12/75/21 13/74/22 18/91/23 17/85/24
f 13/90/25 14/73/26 19/83/27 18/84/28
f 14/73/29 15/70/30 20/20/31 19/83/32
f 16/14/33 17/13/34 22/21/35 21/22/36
f 17/13/37 18/92/38 23/93/39 22/21/40
f 18/16/41 19/18/42 24/24/43 23/23/44
f 19/18/45 20/79/46 25/80/47 24/24/48
f 1/1/49 6/71/50 27/26/51 26/27/52
f 10/69/53 5/9/54 28/28/55 29/29/56
f 6/71/57 11/72/58 30/89/59 27/26/60
f 15/86/61 10/69/62 29/29/63 31/31/64
f 11/88/65 16/81/66 21/82/67 30/30/68
f 20/20/69 15/70/70 31/87/71 25/25/72
f 2/2/73 1/1/74 32/32/75 33/33/76
f 3/5/77 2/2/78 33/33/79 34/34/80
f 4/7/81 3/5/82 34/34/83 35/35/84
f 5/9/85 4/7/86 35/35/87 36/36/88
f 1/1/89 26/27/90 37/37/91 32/32/92
f 28/28/93 5/9/94 36/36/95 38/38/96
s 1
f 6/4/97 7/3/98 40/39/99 39/40/100
f 7/3/98 8/6/101 41/41/102 40/39/99
f 8/6/101 9/8/103 42/42/104 41/41/102
f 9/8/103 10/10/105 43/43/106 42/42/104
s 2
f 12/12/107 11/11/108 44/44/109 45/45/110
f 13/15/111 12/12/107 45/45/110 46/46/112
f 14/17/113 13/15/111 46/46/112 47/47/114
f 15/19/115 14/17/113 47/47/114 48/48/116
s off
f 11/11/117 6/4/118 39/40/119 44/44/120
f 10/10/121 15/19/122 48/48/123 43/43/124
f 49/49/125 50/50/126 84/114/127 76/104/128
f 50/50/129 51/51/130 83/116/131 84/114/132
f 51/51/133 52/52/134 82/117/135 83/116/136
f 52/52/137 53/53/138 81/118/139 82/117/140
f 53/53/141 54/54/142 80/119/143 81/118/144
f 54/54/145 55/55/146 79/107/147 80/119/148
f 55/68/149 56/56/150 78/121/151 79/120/152
f 56/56/153 57/57/154 77/122/155 78/121/156
f 57/57/157 49/49/158 76/104/159 77/122/160
f 58/58/161 59/59/162 75/123/163 67/94/164
f 59/59/165 60/60/166 74/125/167 75/123/168
f 60/60/169 61/61/170 73/126/171 74/125/172
f 61/61/173 62/62/174 72/127/175 73/126/176
f 62/62/177 63/63/178 71/128/179 72/127/180
f 63/63/181 64/64/182 70/97/183 71/128/184
f 64/67/185 65/65/186 69/130/187 70/129/188
f 65/65/189 66/66/190 68/131/191 69/130/192
f 66/66/193 58/58/194 67/94/195 68/131/196
f 77/105/197 76/115/198 84/113/199 83/112/200 82/111/201 81/110/202 80/109/203 79/108/204 78/106/205
f 68/95/206 67/124/207 75/103/208 74/102/209 73/101/210 72/100/211 71/99/212 70/98/213 69/96/214
